<svg xmlns="http://www.w3.org/2000/svg" viewBox="0 0 298.271 298.271"><path d="M236.95 229h-21.68v16h21.68c4.12 0 7.6-3.66 7.6-8 0-4.33-3.48-8-7.6-8zM236.25 206.93c0-4.3-3.48-7.93-7.6-7.93h-13.38v14h18.1c1.37-1 2.88-3.22 2.88-6.07z"/><path d="M264.32 154h-51c18.9 0 33.95-15.64 33.95-34.54V42.02c0-18.9-15.04-34.02-33.95-34.02h-77.44c-18.9 0-34.6 15.12-34.6 34.02v77.44c0 7.02 2.28 13.55 5.9 19l-1.36-1.47c-6.45-6.46-15.02-10.02-24.2-10.02s-17.76 3.56-24.22 10l-47.38 47.4c-13.36 13.37-13.36 35.12 0 48.48l47.4 47.4c6.46 6.45 15.07 10 24.24 10 9.18 0 17.8-3.55 24.24-10l47.23-47.4c4.9-4.9 8.14-10.94 9.14-17.27v39.86c0 18.9 15.7 34.54 34.6 34.54h67.45c18.9 0 33.95-15.64 33.95-34.54v-67.44c0-18.9-15.04-34.02-33.94-34.02zM178.9 36.52c11.57 0 22.48 4.47 30.72 12.6 3.15 3.1 3.18 8.16.08 11.3-3.1 3.16-8.17 3.2-11.3.1-5.24-5.16-12.16-8-19.5-8-15.3 0-27.76 12.45-27.76 27.75s12.45 27.76 27.76 27.76c8.1 0 15.8-3.54 21.07-9.7 2.88-3.35 7.93-3.74 11.28-.86 3.36 2.87 3.75 7.92.87 11.27-8.33 9.72-20.44 15.3-33.22 15.3-24.13 0-43.76-19.64-43.76-43.77 0-24.12 19.63-43.75 43.76-43.75zM132.76 211.4c-1.44 4.17-6 6.4-10.17 4.95l-11.8-4.06-25.33 25.32 3.96 12.04c1.38 4.2-.9 8.72-5.1 10.1-.83.27-1.68.4-2.5.4-3.37 0-6.5-2.13-7.6-5.5L52.6 188.9c-.95-2.9-.2-6.07 1.98-8.2 2.16-2.14 5.35-2.86 8.22-1.87l65 22.4c4.18 1.44 6.4 6 4.96 10.17zm29.5-23.38v13.64c-1-6.33-4.23-12.37-9.13-17.27L116.8 148.1c5.45 3.63 12.07 5.88 19.08 5.88h61c-18.9 0-34.6 15.12-34.6 34.02zm74.7 72.98H207.6c-4.4 0-8.33-3.84-8.33-8.26v-62c0-4.42 3.92-7.74 8.33-7.74h21.05c13 0 23.6 10.6 23.6 23.8 0 3.53-.8 6.9-2.26 10 6.35 4.32 10.55 11.77 10.55 20.1 0 13.24-10.6 24.1-23.6 24.1z"/><path d="M79.87 220.6l14.1-14.1-21.14-7.3"/></svg>