<svg xmlns="http://www.w3.org/2000/svg" viewBox="0 0 455 455"><path d="M315 157.5C315 70.52 244.5 0 157.5 0 70.52 0 0 70.52 0 157.5c0 32.92 10.1 63.48 27.38 88.75L6.68 308.3l62.07-20.68C94.02 304.9 124.58 315 157.5 315c87 0 157.5-70.5 157.5-157.5z"/><path d="M455 297.5c0-70.53-46.37-130.22-110.28-150.28.18 3.4.28 6.84.28 10.28 0 25.3-4.96 49.86-14.75 73-9.44 22.32-22.96 42.37-40.17 59.58-17.2 17.2-37.26 30.73-59.6 40.17-23.12 9.8-47.68 14.75-72.98 14.75-3.44 0-6.87-.1-10.3-.3C167.28 408.62 226.97 455 297.5 455c32.92 0 63.48-10.1 88.75-27.38l62.06 20.7-20.68-62.07C444.9 360.98 455 330.42 455 297.5z"/></svg>