<svg xmlns="http://www.w3.org/2000/svg" viewBox="0 0 380 380"><path d="M360.88 38.24c-11.3-16.6-35.1-35.6-60.63-38-14.62-1.37-27.5 3.06-37.27 12.83l-.53.53-.44.6s-20.65 28.23-63.07 74.05c9.58-21.6 12.3-46.47-9.48-61.03-14.15-9.53-36.1-11.83-50.67-2.75-30.15 18.74-16.12 63.83-1.83 88.03.4.7 1.08 1.84 1.92 3.23l-3.23-1.92c-24.2-14.28-69.3-28.3-88.03 1.84-9.07 14.57-6.77 36.52 2.76 50.67 14.6 21.85 39.54 19.06 61.2 9.42-51.32 47.93-90.84 79.7-90.84 79.7l-.22.17c-24.34 20.48-25.53 52.3-3.14 83.03 10.8 14.83 25.96 27.5 41.6 34.78 18.14 8.45 35.02 8.8 47.52.97 3.62-2.26 7.04-4.52 9.46-7.44 30.4-36.6-33.22-82.5-59.55-84.9-5.73-.52-12.44.76-15.3 5.57-6.17 10.36.4 25.15 10.67 35.42 26.45 26.44 49.25 21.1 49.25 21.1-17.63 10.4-40.48 5.63-58.22-12.16-13.72-13.77-23.1-35.16-13.15-51.9 2.95-4.96 10.63-12.83 28.9-9.67 30.93 5.34 74 39.04 80.5 70.87l7.3-10.93c25.23-37.9 55.98-73.07 86.52-103.8-.2-.25-.4-.5-.57-.77-24.67-38.43-58.28-65.9-74.77-78l15.8-15.92c18.02 13.55 50.6 41.06 75.64 78.86 40.63-39.05 79.05-69.55 101.46-87.34 9.46-7.5 15.18-12.04 17.76-14.62 16.04-16.05 13.58-39.77-7.32-70.5zm-248.1 109.72c-7.63 1.82-22.82 7.73-32.34 1.48-6.03-3.96-9.57-25.75 36.2-18.15 11.2 1.85 22.6 3.55 33.52 6.7-12.53 3.04-24.83 6.97-37.38 9.96zm58.32-58.32c-3 12.55-6.92 24.85-9.96 37.38-3.15-10.93-4.85-22.3-6.7-33.53-7.6-45.77 14.18-42.23 18.14-36.2 6.25 9.52.34 24.7-1.48 32.34z"/><path d="M189.45 27.22c2.67 1.78-2.67-1.8 0 0zM50.36 166.3c-1.8-2.66 1.78 2.68 0 0z"/></svg>