<svg height="56.69" viewBox="0 0 56.693 56.693" width="56.69" xmlns="http://www.w3.org/2000/svg"><path d="M30.07 27.1v-.08c0 .03-.03.06-.05.08h.05z"/><path d="M49.27 4.67H7.13c-2 0-3.65 1.6-3.65 3.56v42.6c0 1.98 1.63 3.58 3.64 3.58h42.12c2.02 0 3.66-1.6 3.66-3.56V8.24c0-1.98-1.64-3.57-3.66-3.57zM18.46 46.3h-7.46V23.85h7.48V46.3zm-3.73-25.52h-.05c-2.5 0-4.13-1.73-4.13-3.88 0-2.2 1.67-3.88 4.22-3.88s4.12 1.67 4.17 3.88c0 2.15-1.63 3.88-4.23 3.88zM45.4 46.3h-7.47v-12c0-3.03-1.08-5.1-3.78-5.1-2.06 0-3.3 1.4-3.83 2.74-.2.48-.25 1.15-.25 1.82V46.3H22.6s.1-20.35 0-22.46h7.47v3.18c1-1.53 2.77-3.7 6.73-3.7 4.9 0 8.6 3.2 8.6 10.1V46.3z"/></svg>