<svg xmlns="http://www.w3.org/2000/svg" width="16.08" height="16.08" viewBox="0 0 335.08 335.079"><path d="M311.18 115.78c-1.36-10.2-1.55-27.73 7.9-33.63.18-.1.3-.26.45-.4 7.74-2.47 13.1-5.94 8.9-10.6l-114.1-34.4-184.77 25.7S8.4 65.47 10.3 98.34c1.02 17.88 6.63 26.67 11.54 31L6.68 133.9c-4.2 4.68 1.14 8.15 8.88 10.62.14.14.27.3.44.4 9.45 5.9 9.27 23.44 7.9 33.63-33.95 9.64-21.76 12.8-21.76 12.8l7.45 1.8C4.34 197.87-.87 206.84.1 223.88 2.02 256.75 19.4 259 19.4 259l120.9 39.3 182.48-44.2s12.2-3.15-21.78-12.8c-1.36-10.17-1.55-27.7 7.92-33.62.18-.1.3-.26.44-.4 7.74-2.47 13.1-5.94 8.9-10.6l-7.95-2.4c5.3-3.2 13.25-11.53 14.5-33.2.85-14.88-3.03-23.6-7.53-28.74l15.68-3.8s12.2-3.14-21.77-12.78zm-152.65-.43l30.7-6.3 103.7-21.32 15.45-3.17c-4.94 9.03-4.73 21.4-3.9 29.35.17 1.8.37 3.45.57 4.7l-16.9 4.2-130.9 32.56 1.28-40zm-131.82 32l15.46 3.16 99.6 20.5 8.7 1.77 26.1 5.36 1.28 40L43.3 184.68l-13.26-3.3c.2-1.24.4-2.88.6-4.7.8-7.93 1-20.3-3.93-29.33zm-6-50.6c-.18-8.74 1.38-15.06 4.53-18.27 2-2.06 4.37-2.48 6-2.48.85 0 1.46.12 1.5.12l79.6 25.95 39.73 12.95-1.3 40.3-111.43-31.25-5.88-1.65c-.2-.06-.5-.1-.73-.1-.46-.04-11.48-1.06-12-25.56zM140.6 280.88l-117.3-32.9c-.22-.05-.5-.1-.73-.1-.47-.04-11.5-1.05-12.02-25.55-.2-8.75 1.37-15.07 4.52-18.3 2-2.04 4.37-2.47 6-2.47.85 0 1.46.12 1.5.12l119.32 38.9-1.3 40.3zm153.7-41.4c.2 1.8.4 3.43.6 4.68l-147.82 36.77 1.3-40 31.6-6.5 4.66 1.13 17.5-5.7 80.63-16.56 15.45-3.2c-4.94 9.05-4.73 21.42-3.92 29.36zm8.15-54.4c-.27.02-.54.06-.8.14l-11.14 3.13-106.16 29.76-1.3-40.3 34.83-11.36 84.32-27.5s4.43-1 7.68 2.32c3.14 3.2 4.7 9.53 4.52 18.28-.55 24.5-11.57 25.5-11.97 25.54z"/></svg>