<svg height="512" viewBox="0 0 512 512" width="512" xmlns="http://www.w3.org/2000/svg"><path d="M479.4 289.46c1.8-11.48 2.74-23.26 2.74-35.25 0-125.3-101.6-226.9-226.92-226.9-11.45 0-22.7.86-33.7 2.5-20.12-11.3-43.33-17.76-68.06-17.76-77 0-139.4 62.4-139.4 139.4 0 24.24 6.2 47.04 17.08 66.9-1.86 11.68-2.84 23.66-2.84 35.88 0 125.32 101.6 226.9 226.92 226.9 9.77 0 19.4-.6 28.85-1.8 22.06 14.63 48.52 23.18 76.98 23.18 77 0 139.4-62.4 139.4-139.4 0-27.05-7.72-52.27-21.04-73.64zM329.6 359.64c-17.9 14.93-43.36 22.4-76.4 22.4-32.8 0-58.96-7.12-78.45-21.37-16.75-11.94-25.12-25.73-25.12-41.35 0-6.9 2.24-12.53 6.7-16.9 4.48-4.35 10.15-6.54 17.02-6.54 8.02 0 15.23 3.9 21.65 11.72 10.3 12.64 16.6 19.76 18.9 21.36 9.86 7.82 22.9 11.72 39.18 11.72 13.98 0 25.2-3.44 33.68-10.34 7.8-6.2 11.7-13.66 11.7-22.4 0-13.1-8.07-21.7-24.18-25.84l-63.87-16.2c-40.52-10.34-60.77-32.97-60.77-67.9 0-25.5 10.48-45.02 31.43-58.58 17.95-11.48 40.5-17.23 67.67-17.23 23.48 0 45.1 5.5 64.9 16.53 20.95 11.72 31.43 25.5 31.43 41.36 0 6.88-2.54 12.34-7.6 16.36-5.07 4.02-11.17 6.03-18.3 6.03-6.9 0-13.35-3.23-19.33-9.66-9.2-9.88-15.2-15.74-17.96-17.58-9.44-6.43-21.75-9.65-36.94-9.65-12.9 0-22.9 2.72-30.04 8.1-7.14 5.4-10.7 12.48-10.7 21.2 0 12.2 12.9 21.15 38.67 26.9l47.3 10.67c43.27 9.88 64.9 33.66 64.9 71.34 0 23.44-8.48 42.05-25.45 55.84z"/></svg>