<svg xmlns="http://www.w3.org/2000/svg" width="205" height="22.29" viewBox="0 56.503 56.354 6.129"><path fill="#F0F8F1" d="M9.002 60.16v2.422H7.847V60.16L6.07 56.675h1.253l1.11 2.382 1.093-2.382h1.25M15.888 60.88c0 .28-.04.522-.132.73-.088.21-.21.39-.376.532-.157.144-.348.256-.57.325-.22.076-.463.113-.73.113h-2.475v-5.906h2.374c.58 0 1.03.148 1.352.445.315.298.473.704.473 1.212 0 .168-.02.317-.073.45-.046.134-.102.25-.178.355-.076.1-.155.19-.24.263-.085.07-.164.122-.236.156.09.045.18.1.277.168.097.07.186.16.262.262.075.106.143.23.19.38.055.148.08.322.08.514m-1.235-2.49c0-.208-.063-.376-.193-.5-.133-.127-.317-.188-.57-.188h-1.128v1.37h1.128c.253 0 .438-.063.57-.188.128-.127.192-.29.192-.495m.082 2.434c0-.2-.06-.37-.186-.512-.122-.14-.318-.21-.585-.21H12.76v1.45h1.203c.267 0 .463-.072.585-.215.126-.145.186-.313.186-.513M17.195 62.582v-5.907h3.89v1.028H18.35v1.382h2.33v1.032h-2.33v1.437h2.734v1.028M25.474 62.582l-1.152-2.354h-.83v2.354h-1.15v-5.906h2.315c.3 0 .565.045.804.145.236.1.44.23.605.39.168.164.294.356.38.576.08.22.13.447.13.697 0 .212-.03.4-.09.563-.062.17-.138.316-.236.45-.1.126-.215.236-.346.33-.132.09-.27.16-.41.208l1.32 2.55h-1.34zm-.056-4.1c0-.23-.076-.42-.23-.564-.15-.145-.354-.217-.61-.217h-1.085v1.564h1.085c.256 0 .46-.072.61-.22.154-.14.23-.328.23-.563M31.326 62.582l-1.517-2.688-.764.914v1.774H27.89v-5.907h1.156v2.57l2.08-2.57h1.404l-1.957 2.346 2.1 3.562M44.443 62.582l-1.52-2.688-.763.914v1.774h-1.154v-5.907h1.154v2.57l2.08-2.57h1.405l-1.96 2.346 2.1 3.562M46.65 56.675h1.153v5.906H46.65zM53.19 61.56c-.13.234-.287.43-.476.586-.188.158-.404.277-.65.36-.24.085-.5.126-.786.126-.633 0-1.16-.22-1.593-.647-.255-.255-.413-.55-.48-.888-.066-.33-.1-.82-.1-1.47 0-.647.032-1.136.1-1.468.067-.34.227-.636.48-.89.432-.432.96-.646 1.593-.646.572 0 1.05.16 1.442.48.39.32.633.782.73 1.387h-1.17c-.06-.257-.17-.458-.33-.61-.158-.15-.382-.228-.665-.228-.32 0-.566.1-.735.308-.063.063-.112.136-.152.213-.04.074-.066.17-.085.29s-.032.27-.044.456c-.007.185-.01.42-.01.708s.003.52.01.71c.01.186.024.337.043.454.02.12.046.217.085.29.04.077.09.15.152.214.17.205.416.307.735.307.283 0 .507-.075.665-.227.16-.152.27-.354.33-.61h1.17c-.043.298-.134.564-.26.794M54.576 56.675h1.15v5.906h-1.15zM.67 62.582h1.202l1.402-3.5 1.403 3.5H5.88l-2.61-5.877M34.933 62.582h1.202l1.404-3.5 1.402 3.5h1.204l-2.607-5.877"/></svg>