<?xml version="1.0" encoding="utf-8"?>
<!-- Generator: Adobe Illustrator 16.0.0, SVG Export Plug-In . SVG Version: 6.00 Build 0)  -->
<!DOCTYPE svg PUBLIC "-//W3C//DTD SVG 1.1//EN" "http://www.w3.org/Graphics/SVG/1.1/DTD/svg11.dtd">
<svg version="1.1" id="Layer_1" xmlns="http://www.w3.org/2000/svg" xmlns:xlink="http://www.w3.org/1999/xlink" x="0px" y="0px"
	 width="56.354px" height="6.129px" viewBox="0 56.503 56.354 6.129" enable-background="new 0 56.503 56.354 6.129"
	 xml:space="preserve">
<polygon fill="#F0F8F1" points="9.002,60.16 9.002,62.582 7.847,62.582 7.847,60.16 6.071,56.675 7.323,56.675 8.434,59.057 
	9.526,56.675 10.777,56.675 "/>
<path fill="#F0F8F1" d="M15.888,60.88c0,0.281-0.041,0.522-0.132,0.729c-0.088,0.212-0.21,0.39-0.376,0.533
	c-0.157,0.144-0.348,0.256-0.571,0.325c-0.219,0.076-0.462,0.113-0.728,0.113h-2.476v-5.906h2.374c0.581,0,1.032,0.148,1.353,0.445
	c0.315,0.299,0.473,0.705,0.473,1.213c0,0.168-0.019,0.317-0.073,0.451c-0.046,0.133-0.102,0.248-0.178,0.354
	c-0.076,0.1-0.155,0.189-0.241,0.263c-0.084,0.071-0.163,0.122-0.235,0.156c0.09,0.045,0.181,0.101,0.277,0.168
	c0.097,0.069,0.186,0.159,0.262,0.262c0.075,0.106,0.143,0.231,0.191,0.38C15.862,60.514,15.888,60.688,15.888,60.88 M14.652,58.389
	c0-0.207-0.063-0.375-0.193-0.5c-0.132-0.126-0.316-0.187-0.569-0.187h-1.128v1.371h1.128c0.253,0,0.438-0.064,0.569-0.189
	C14.588,58.757,14.652,58.595,14.652,58.389 M14.734,60.824c0-0.201-0.06-0.371-0.186-0.512c-0.122-0.141-0.318-0.211-0.585-0.211
	h-1.202v1.451h1.202c0.267,0,0.463-0.072,0.585-0.215C14.674,61.192,14.734,61.024,14.734,60.824"/>
<polygon fill="#F0F8F1" points="17.195,62.582 17.195,56.675 21.084,56.675 21.084,57.703 18.35,57.703 18.35,59.085 20.679,59.085 
	20.679,60.117 18.35,60.117 18.35,61.554 21.084,61.554 21.084,62.582 "/>
<path fill="#F0F8F1" d="M25.474,62.582l-1.152-2.354h-0.829v2.354h-1.151v-5.906h2.315c0.299,0,0.565,0.045,0.804,0.145
	c0.235,0.098,0.438,0.229,0.604,0.389c0.168,0.164,0.294,0.356,0.379,0.576c0.082,0.219,0.13,0.447,0.13,0.697
	c0,0.212-0.03,0.4-0.09,0.563c-0.061,0.17-0.137,0.316-0.235,0.449c-0.098,0.127-0.214,0.237-0.345,0.33
	c-0.132,0.092-0.269,0.16-0.409,0.209l1.319,2.549H25.474z M25.418,58.481c0-0.229-0.076-0.418-0.229-0.563
	c-0.15-0.145-0.355-0.217-0.611-0.217h-1.085v1.563h1.085c0.256,0,0.461-0.072,0.611-0.219
	C25.342,58.903,25.418,58.716,25.418,58.481"/>
<polygon fill="#F0F8F1" points="31.326,62.582 29.809,59.894 29.046,60.808 29.046,62.582 27.89,62.582 27.89,56.675 29.046,56.675 
	29.046,59.246 31.127,56.675 32.53,56.675 30.573,59.021 32.674,62.582 "/>
<polygon fill="#F0F8F1" points="44.443,62.582 42.923,59.894 42.16,60.808 42.16,62.582 41.006,62.582 41.006,56.675 42.16,56.675 
	42.16,59.246 44.241,56.675 45.645,56.675 43.684,59.021 45.785,62.582 "/>
<rect x="46.649" y="56.675" fill="#F0F8F1" width="1.154" height="5.906"/>
<path fill="#F0F8F1" d="M53.19,61.56c-0.13,0.234-0.287,0.43-0.476,0.586c-0.188,0.158-0.404,0.277-0.65,0.361
	c-0.239,0.084-0.5,0.125-0.786,0.125c-0.633,0-1.161-0.219-1.593-0.647c-0.255-0.255-0.413-0.55-0.479-0.888
	c-0.067-0.33-0.102-0.821-0.102-1.469c0-0.648,0.033-1.137,0.102-1.469c0.066-0.339,0.226-0.635,0.479-0.889
	c0.432-0.432,0.96-0.646,1.593-0.646c0.572,0,1.051,0.16,1.442,0.481c0.391,0.319,0.633,0.781,0.73,1.386H52.28
	c-0.059-0.258-0.17-0.459-0.33-0.611c-0.158-0.15-0.382-0.228-0.665-0.228c-0.319,0-0.566,0.101-0.735,0.308
	c-0.063,0.063-0.112,0.136-0.152,0.213c-0.039,0.074-0.066,0.17-0.085,0.289s-0.032,0.271-0.044,0.457
	c-0.006,0.186-0.009,0.422-0.009,0.709s0.003,0.521,0.009,0.709c0.012,0.187,0.025,0.338,0.044,0.455
	c0.019,0.121,0.046,0.217,0.085,0.291c0.04,0.076,0.091,0.148,0.152,0.213c0.169,0.205,0.416,0.307,0.735,0.307
	c0.283,0,0.507-0.075,0.665-0.227c0.16-0.152,0.271-0.354,0.33-0.609h1.171C53.407,61.064,53.316,61.33,53.19,61.56"/>
<rect x="54.576" y="56.675" fill="#F0F8F1" width="1.15" height="5.906"/>
<polygon fill="#F0F8F1" points="0.671,62.582 1.872,62.582 3.274,59.083 4.677,62.582 5.881,62.582 3.271,56.705 "/>
<polygon fill="#F0F8F1" points="34.933,62.582 36.135,62.582 37.539,59.083 38.942,62.582 40.146,62.582 37.539,56.705 "/>
</svg>
