<?xml version="1.0" encoding="utf-8"?>
<!-- Generator: Adobe Illustrator 16.0.0, SVG Export Plug-In . SVG Version: 6.00 Build 0)  -->
<!DOCTYPE svg PUBLIC "-//W3C//DTD SVG 1.1//EN" "http://www.w3.org/Graphics/SVG/1.1/DTD/svg11.dtd">
<svg version="1.1" id="Layer_1" xmlns="http://www.w3.org/2000/svg" xmlns:xlink="http://www.w3.org/1999/xlink" x="0px" y="0px"
	 width="95.341px" height="7.245px" viewBox="0 0 95.341 7.245" enable-background="new 0 0 95.341 7.245" xml:space="preserve">
<polygon fill="#F0F8F1" points="4.541,5.862 4.541,4.511 1.837,2.935 4.541,1.359 4.541,0.005 0,2.938 "/>
<g>
	<path fill="#F0F8F1" d="M9.152,0v0.332H6.914V2.77h2.238v0.332H6.914v2.77H6.582V0H9.152z"/>
	<path fill="#F0F8F1" d="M11.053,2.558c-0.235,0.036-0.466,0.186-0.693,0.448c-0.227,0.264-0.34,0.529-0.34,0.798v2.067H9.688V2.268
		h0.332v0.78c0.138-0.362,0.422-0.633,0.851-0.81L11.053,2.558z"/>
	<path fill="#F0F8F1" d="M13.366,1.943c0.559,0,1.035,0.196,1.426,0.59c0.392,0.393,0.588,0.869,0.588,1.428
		c0,0.554-0.196,1.028-0.588,1.422c-0.392,0.395-0.867,0.592-1.426,0.592c-0.553,0-1.027-0.197-1.422-0.592
		c-0.395-0.394-0.592-0.868-0.592-1.422c0-0.559,0.197-1.035,0.592-1.428C12.339,2.14,12.813,1.943,13.366,1.943z M12.189,2.782
		c-0.326,0.326-0.488,0.72-0.488,1.179c0,0.46,0.162,0.852,0.488,1.175c0.325,0.324,0.717,0.486,1.177,0.486
		s0.852-0.162,1.177-0.486c0.325-0.323,0.488-0.715,0.488-1.175c0-0.459-0.163-0.853-0.488-1.179
		c-0.325-0.327-0.718-0.49-1.177-0.49S12.515,2.455,12.189,2.782z"/>
	<path fill="#F0F8F1" d="M16.422,3.072v2.799H16.09V2.268h0.332V2.5c0.299-0.3,0.648-0.449,1.046-0.449
		c0.426,0,0.773,0.134,1.04,0.401c0.267,0.267,0.403,0.603,0.409,1.007v2.412h-0.328V3.492c0-0.308-0.111-0.569-0.332-0.785
		c-0.222-0.216-0.484-0.323-0.789-0.323c-0.302,0-0.563,0.106-0.785,0.319C16.564,2.822,16.477,2.945,16.422,3.072z"/>
	<path fill="#F0F8F1" d="M20.196,2.268V0.735h0.328v1.532h0.735V2.6h-0.735v3.271h-0.328V2.6h-0.735V2.268H20.196z"/>
	<path fill="#F0F8F1" d="M21.591,3.533h2.076v0.332h-2.076V3.533z"/>
	<path fill="#F0F8F1" d="M27.267,0v0.332h-2.603V2.77h2.603v0.332h-2.603v2.438h2.603v0.332h-2.936V0H27.267z"/>
	<path fill="#F0F8F1" d="M28.476,3.072v2.799h-0.332V2.268h0.332V2.5c0.299-0.3,0.648-0.449,1.046-0.449
		c0.426,0,0.773,0.134,1.04,0.401c0.267,0.267,0.403,0.603,0.409,1.007v2.412h-0.328V3.492c0-0.308-0.111-0.569-0.332-0.785
		c-0.222-0.216-0.484-0.323-0.789-0.323c-0.302,0-0.563,0.106-0.785,0.319C28.618,2.822,28.531,2.945,28.476,3.072z"/>
	<path fill="#F0F8F1" d="M35.67,5.871h-0.332V5.136c-0.063,0.086-0.133,0.168-0.207,0.245c-0.393,0.396-0.869,0.594-1.429,0.594
		c-0.553,0-1.027-0.197-1.422-0.592c-0.395-0.394-0.592-0.868-0.592-1.422c0-0.559,0.197-1.035,0.592-1.428
		c0.395-0.394,0.869-0.59,1.422-0.59c0.56,0,1.036,0.196,1.429,0.59c0.074,0.077,0.145,0.159,0.207,0.244V0h0.332V5.871z
		 M35.338,4.285V3.633c-0.061-0.323-0.213-0.607-0.457-0.851c-0.326-0.327-0.719-0.49-1.179-0.49s-0.852,0.163-1.177,0.49
		c-0.326,0.326-0.488,0.72-0.488,1.179c0,0.46,0.162,0.852,0.488,1.175c0.325,0.324,0.717,0.486,1.177,0.486s0.853-0.163,1.179-0.49
		C35.125,4.889,35.278,4.606,35.338,4.285z"/>
	<path fill="#F0F8F1" d="M41.571,1.557l1.462,3.779L44.465,0h0.336l-1.577,5.871h-0.333l-1.415-3.712L40.06,5.871h-0.332L38.15,0
		h0.336l1.437,5.336l1.458-3.779H41.571z"/>
	<path fill="#F0F8F1" d="M45.378,3.774c-0.009,0.058-0.013,0.12-0.013,0.187c0,0.46,0.163,0.852,0.488,1.175
		c0.325,0.324,0.718,0.486,1.177,0.486c0.46,0,0.853-0.163,1.18-0.49c0.055-0.055,0.107-0.113,0.157-0.174l0.354,0.124
		c-0.042,0.069-0.129,0.169-0.262,0.299c-0.394,0.396-0.869,0.594-1.429,0.594c-0.554,0-1.027-0.197-1.422-0.592
		c-0.395-0.394-0.592-0.868-0.592-1.422c0-0.559,0.197-1.035,0.592-1.428c0.395-0.394,0.868-0.59,1.422-0.59
		c0.56,0,1.035,0.196,1.429,0.59c0.346,0.349,0.519,0.763,0.519,1.241H45.378z M45.441,3.438h3.164
		c-0.078-0.252-0.209-0.471-0.395-0.656c-0.327-0.327-0.72-0.49-1.18-0.49c-0.459,0-0.853,0.163-1.179,0.49
		C45.658,2.979,45.521,3.197,45.441,3.438z"/>
	<path fill="#F0F8F1" d="M49.539,0h0.332v2.773C49.931,2.69,50,2.61,50.079,2.533c0.393-0.394,0.867-0.59,1.424-0.59
		s1.031,0.196,1.424,0.59c0.394,0.393,0.59,0.869,0.59,1.428c0,0.554-0.196,1.028-0.59,1.422c-0.393,0.395-0.867,0.592-1.424,0.592
		s-1.031-0.197-1.424-0.594C50,5.304,49.931,5.224,49.871,5.141v0.73h-0.332V0z M49.871,3.616v0.689
		c0.061,0.313,0.212,0.588,0.452,0.826c0.327,0.327,0.72,0.49,1.18,0.49c0.459,0,0.852-0.162,1.177-0.486
		c0.325-0.323,0.488-0.715,0.488-1.175c0-0.459-0.163-0.853-0.488-1.179c-0.325-0.327-0.718-0.49-1.177-0.49
		c-0.46,0-0.853,0.163-1.18,0.49C50.083,3.022,49.931,3.301,49.871,3.616z"/>
	<path fill="#F0F8F1" d="M57.486,0c0.966,0.006,1.715,0.275,2.246,0.81c0.587,0.59,0.881,1.299,0.881,2.126
		c0,0.833-0.294,1.543-0.881,2.13c-0.531,0.531-1.28,0.8-2.246,0.806h-1.088V0H57.486z M56.73,0.345V5.53h0.752
		c0.844,0,1.51-0.235,1.997-0.705c0.521-0.521,0.78-1.15,0.78-1.89c0-0.736-0.26-1.366-0.78-1.889
		c-0.487-0.468-1.153-0.702-1.997-0.702H56.73z"/>
	<path fill="#F0F8F1" d="M61.447,3.774c-0.009,0.058-0.013,0.12-0.013,0.187c0,0.46,0.163,0.852,0.488,1.175
		c0.325,0.324,0.718,0.486,1.177,0.486c0.46,0,0.853-0.163,1.18-0.49c0.055-0.055,0.107-0.113,0.157-0.174l0.354,0.124
		c-0.042,0.069-0.129,0.169-0.262,0.299c-0.394,0.396-0.869,0.594-1.429,0.594c-0.554,0-1.027-0.197-1.422-0.592
		c-0.395-0.394-0.592-0.868-0.592-1.422c0-0.559,0.197-1.035,0.592-1.428c0.395-0.394,0.868-0.59,1.422-0.59
		c0.56,0,1.035,0.196,1.429,0.59c0.346,0.349,0.519,0.763,0.519,1.241H61.447z M61.509,3.438h3.164
		c-0.078-0.252-0.209-0.471-0.395-0.656c-0.327-0.327-0.72-0.49-1.18-0.49c-0.459,0-0.853,0.163-1.179,0.49
		C61.726,2.979,61.589,3.197,61.509,3.438z"/>
	<path fill="#F0F8F1" d="M68.576,2.268l-1.611,3.604h-0.174l-1.595-3.604h0.386l1.296,3.002l1.312-3.002H68.576z"/>
	<path fill="#F0F8F1" d="M69.153,3.774c-0.009,0.058-0.013,0.12-0.013,0.187c0,0.46,0.163,0.852,0.488,1.175
		c0.325,0.324,0.718,0.486,1.177,0.486c0.46,0,0.853-0.163,1.18-0.49c0.055-0.055,0.107-0.113,0.157-0.174l0.354,0.124
		c-0.042,0.069-0.129,0.169-0.262,0.299c-0.394,0.396-0.869,0.594-1.429,0.594c-0.554,0-1.027-0.197-1.422-0.592
		c-0.395-0.394-0.592-0.868-0.592-1.422c0-0.559,0.197-1.035,0.592-1.428c0.395-0.394,0.868-0.59,1.422-0.59
		c0.56,0,1.035,0.196,1.429,0.59c0.346,0.349,0.519,0.763,0.519,1.241H69.153z M69.215,3.438h3.164
		c-0.078-0.252-0.209-0.471-0.395-0.656c-0.327-0.327-0.72-0.49-1.18-0.49c-0.459,0-0.853,0.163-1.179,0.49
		C69.432,2.979,69.295,3.197,69.215,3.438z"/>
	<path fill="#F0F8F1" d="M73.692,0v5.871H73.36V0H73.692z"/>
	<path fill="#F0F8F1" d="M76.46,1.943c0.56,0,1.035,0.196,1.427,0.59c0.392,0.393,0.587,0.869,0.587,1.428
		c0,0.554-0.195,1.028-0.587,1.422c-0.392,0.395-0.867,0.592-1.427,0.592c-0.554,0-1.027-0.197-1.422-0.592
		c-0.395-0.394-0.592-0.868-0.592-1.422c0-0.559,0.197-1.035,0.592-1.428C75.433,2.14,75.907,1.943,76.46,1.943z M75.284,2.782
		c-0.325,0.326-0.488,0.72-0.488,1.179c0,0.46,0.163,0.852,0.488,1.175c0.325,0.324,0.718,0.486,1.177,0.486
		c0.46,0,0.852-0.162,1.178-0.486c0.325-0.323,0.487-0.715,0.487-1.175c0-0.459-0.162-0.853-0.487-1.179
		c-0.326-0.327-0.718-0.49-1.178-0.49C76.001,2.292,75.609,2.455,75.284,2.782z"/>
	<path fill="#F0F8F1" d="M79.155,2.268h0.332v0.506c0.062-0.083,0.13-0.163,0.208-0.24c0.393-0.391,0.867-0.586,1.424-0.586
		s1.031,0.196,1.425,0.588c0.393,0.392,0.589,0.867,0.589,1.426c0,0.554-0.196,1.028-0.589,1.422
		c-0.394,0.395-0.868,0.592-1.425,0.592s-1.031-0.197-1.424-0.594c-0.078-0.077-0.146-0.157-0.208-0.24v2.104h-0.332V2.268z
		 M79.487,3.616v0.689c0.062,0.315,0.212,0.593,0.453,0.83c0.326,0.327,0.72,0.49,1.179,0.49c0.46,0,0.852-0.162,1.178-0.487
		c0.325-0.325,0.487-0.718,0.487-1.178c0-0.459-0.162-0.853-0.487-1.179c-0.326-0.327-0.718-0.49-1.178-0.49
		c-0.459,0-0.853,0.163-1.179,0.49C79.699,3.022,79.548,3.301,79.487,3.616z"/>
	<path fill="#F0F8F1" d="M83.959,3.774c-0.009,0.058-0.013,0.12-0.013,0.187c0,0.46,0.163,0.852,0.488,1.175
		c0.325,0.324,0.718,0.486,1.177,0.486c0.46,0,0.853-0.163,1.18-0.49c0.055-0.055,0.107-0.113,0.157-0.174l0.354,0.124
		c-0.042,0.069-0.129,0.169-0.262,0.299c-0.394,0.396-0.869,0.594-1.429,0.594c-0.554,0-1.027-0.197-1.422-0.592
		c-0.395-0.394-0.592-0.868-0.592-1.422c0-0.559,0.197-1.035,0.592-1.428c0.395-0.394,0.868-0.59,1.422-0.59
		c0.56,0,1.035,0.196,1.429,0.59c0.346,0.349,0.519,0.763,0.519,1.241H83.959z M84.022,3.438h3.164
		c-0.078-0.252-0.209-0.471-0.395-0.656c-0.327-0.327-0.72-0.49-1.18-0.49c-0.459,0-0.853,0.163-1.179,0.49
		C84.239,2.979,84.102,3.197,84.022,3.438z"/>
	<path fill="#F0F8F1" d="M89.394,2.558c-0.235,0.036-0.466,0.186-0.693,0.448c-0.227,0.264-0.34,0.529-0.34,0.798v2.067h-0.333
		V2.268h0.333v0.78c0.138-0.362,0.422-0.633,0.851-0.81L89.394,2.558z"/>
</g>
<polygon fill="#F0F8F1" points="90.8,0.005 90.8,1.356 93.504,2.932 90.8,4.508 90.8,5.862 95.341,2.929 "/>
</svg>
