<?xml version="1.0"?>
<!--Icons from directory ""-->
<svg xmlns="http://www.w3.org/2000/svg" width="300" height="787" viewBox="0 0 300 787"><svg xmlns:xlink="http://www.w3.org/1999/xlink" id="CodeSchool" xml:space="preserve" height="300" viewBox="0 0 512 512" width="300" version="1.1" enable-background="new 0 0 512 512" y="0"><g fill="#fbf7e0"><path d="m257.22 72.5c-101.51 0-183.8 81.862-183.8 182.83 0 100.99 82.292 182.84 183.8 182.84 101.49 0 183.79-81.853 183.79-182.84 0-100.97-82.3-182.83-183.79-182.83zm0 336.66c-85.41 0-154.64-68.86-154.64-153.83 0-84.951 69.232-153.82 154.64-153.82 85.403 0 154.64 68.873 154.64 153.82-0.01 84.97-69.24 153.83-154.64 153.83z"/><path d="m372.38 259.82l0.086-0.076v-0.017c2.4-2.487 2.414-6.394-0.013-8.791l-90.218-89.749c-1.217-1.214-2.813-1.839-4.408-1.839-1.622 0-3.218 0.625-4.441 1.839l-0.094 0.12c-1.184 1.167-1.848 2.736-1.848 4.398v24.828c0 1.649 0.664 3.232 1.848 4.392l60.688 60.402-60.688 60.399c-1.184 1.17-1.848 2.753-1.848 4.401v24.846c0 1.619 0.664 3.231 1.848 4.388l0.094 0.12c1.17 1.157 2.772 1.822 4.441 1.822 1.656 0 3.238-0.665 4.408-1.822l90.14-89.66z"/><path d="m144.23 259.82l-0.073-0.076v-0.017c-2.407-2.487-2.407-6.394 0-8.791l90.218-89.749c1.236-1.214 2.832-1.839 4.428-1.839 1.609 0 3.198 0.625 4.415 1.839l0.127 0.12c1.177 1.167 1.842 2.736 1.842 4.398v24.828c0 1.649-0.665 3.232-1.842 4.392l-60.715 60.402 60.715 60.399c1.177 1.17 1.842 2.753 1.842 4.401v24.846c0 1.619-0.665 3.231-1.842 4.388l-0.127 0.12c-1.157 1.157-2.746 1.822-4.415 1.822-1.655 0-3.244-0.665-4.428-1.822l-90.16-89.66z"/></g></svg><svg xmlns:xlink="http://www.w3.org/1999/xlink" height="24" width="24" version="1.1" viewBox="0 0 24 24" id="birtday" y="300"><title/><desc/><g id="birtday-miu" fill-rule="evenodd" fill="none"><g id="birtday-Artboard-1" transform="translate(-827 -515)"><path id="birtday-food-birthday-cake-party-candle-glyph" d="m829.13 528.92c0.59 0.41 1.32 0.79 1.97 0.79 1.37 0 2.16-1.71 3.67-1.71s2.5 1.71 3.95 1.71c1.44 0 2.55-1.71 3.95-1.71s2.58 1.71 3.95 1.71c0.7 0 1.57-0.45 2.25-0.89v-2.81c0-1.01-0.56-1.01-0.56-1.01h-18.62s-0.56 0-0.56 1.01v2.91zm-1.13-0.42v5.21c0 2.29 2.26 2.29 2.26 2.29h17.48s2.26 0 2.26-2.29v-5.21-2.49c0-2.01-1.69-2.01-1.69-2.01h-18.62s-1.69 0-1.69 2.01v2.49zm5-9v4h1v-4h-1zm5.5 0v4h1v-4h-1zm5.5 0v4h1v-4h-1zm-10.51-0.5c0.51 0.01 0.83-0.55 0-1.5-0.8 0.95-0.49 1.49 0 1.5zm5.5 0c0.51 0.01 0.83-0.55 0-1.5-0.8 0.95-0.49 1.49 0 1.5zm5.5 0c0.51 0.01 0.83-0.55 0-1.5-0.8 0.95-0.49 1.49 0 1.5z" fill="#fbf7e0"/></g></g></svg><svg xmlns:xlink="http://www.w3.org/1999/xlink" id="bitbucket" style="enable-background:new 0 0 31.68 31.681" xml:space="preserve" height="32" viewBox="0 0 31.68 31.681" width="32" version="1.1" y="324" x="0px">	<path d="m29.208 3.519c-0.203-0.285-0.451-0.525-0.729-0.738-0.61-0.475-1.297-0.814-2.01-1.102-1.516-0.611-3.097-0.971-4.701-1.229-1.958-0.313-3.932-0.438-6.006-0.45-1.854 0.016-3.797 0.133-5.725 0.434-1.369 0.215-2.721 0.506-4.035 0.951-0.869 0.297-1.71 0.649-2.477 1.164-0.365 0.244-0.701 0.521-0.976 0.869-0.344 0.438-0.491 0.926-0.402 1.479 0.173 1.092 0.333 2.185 0.513 3.272 0.264 1.611 0.537 3.222 0.811 4.828 0.306 1.787 0.62 3.573 0.918 5.36 0.07 0.416 0.246 0.769 0.526 1.07 0.179 0.193 0.37 0.377 0.574 0.543 0.73 0.59 1.562 1.01 2.432 1.354 2.082 0.83 4.259 1.205 6.485 1.328 1.616 0.09 3.23 0.033 4.838-0.187 1.369-0.185 2.709-0.479 4.011-0.948 0.965-0.349 1.891-0.775 2.725-1.382 0.355-0.26 0.683-0.547 0.945-0.901 0.181-0.238 0.305-0.504 0.354-0.805 0.397-2.341 0.809-4.679 1.196-7.021 0.362-2.172 0.701-4.346 1.058-6.518 0.084-0.502-0.031-0.955-0.325-1.371zm-13.388 16.121c-2.4-0.008-4.341-1.971-4.333-4.383 0.006-2.41 1.958-4.347 4.369-4.338 2.425 0.008 4.359 1.961 4.35 4.387-0.011 2.398-1.979 4.342-4.386 4.334zm8.702-15.246c-0.124 0.139-0.274 0.262-0.436 0.357-0.45 0.268-0.951 0.409-1.454 0.541-0.952 0.243-1.923 0.383-2.896 0.485-1.281 0.136-2.565 0.183-3.791 0.188-1.49-0.008-2.914-0.068-4.332-0.238-1.064-0.129-2.124-0.291-3.146-0.633-0.303-0.104-0.598-0.236-0.883-0.381-0.146-0.072-0.275-0.185-0.386-0.304-0.197-0.215-0.196-0.45 0.005-0.663 0.117-0.125 0.26-0.232 0.407-0.316 0.424-0.246 0.89-0.389 1.359-0.512 0.983-0.256 1.985-0.402 2.994-0.509 1.652-0.17 3.308-0.221 4.967-0.172 1.524 0.045 3.045 0.158 4.55 0.431 0.706 0.127 1.407 0.274 2.075 0.545 0.236 0.096 0.463 0.217 0.683 0.346 0.109 0.064 0.208 0.164 0.288 0.266 0.142 0.182 0.148 0.397-0.004 0.569zm1.664 18.367c0.009 0.088-0.004 0.183-0.021 0.271-0.305 1.604-0.614 3.205-0.911 4.811-0.101 0.539-0.344 0.99-0.724 1.377-0.422 0.432-0.918 0.752-1.448 1.023-0.979 0.498-2.018 0.811-3.085 1.031-1.377 0.286-2.771 0.414-3.563 0.407-2.41-0.006-4.184-0.198-5.917-0.698-0.802-0.23-1.577-0.529-2.3-0.953-0.379-0.222-0.732-0.478-1.042-0.789-0.388-0.392-0.64-0.846-0.741-1.396-0.296-1.604-0.609-3.207-0.915-4.81-0.016-0.081-0.021-0.163-0.019-0.245 0.019-0.394 0.37-0.597 0.724-0.423 0.036 0.021 0.072 0.041 0.105 0.063 1.174 0.853 2.484 1.423 3.858 1.856 1.262 0.4 2.556 0.641 3.873 0.758 1.52 0.138 3.031 0.104 4.54-0.11 2-0.28 3.91-0.851 5.687-1.827 0.354-0.194 0.686-0.43 1.025-0.646 0.056-0.035 0.108-0.076 0.167-0.104 0.34-0.151 0.674 0.038 0.707 0.404zm-8.159-7.477c-0.005 1.203-0.992 2.184-2.197 2.178-1.205-0.004-2.178-0.987-2.172-2.196 0.004-1.212 0.98-2.181 2.192-2.175 1.209 0.006 2.18 0.982 2.177 2.193z" fill="#fbf7e0"/></svg><svg xmlns:xlink="http://www.w3.org/1999/xlink" id="github" xml:space="preserve" height="100" viewBox="0 0 100 100" width="100" version="1.1" enable-background="new 0 0 100 100" y="356"><path d="m70.709 15.029c1.17 2.657 1.928 7.07 0.797 10.301 4.625 3.949 6.215 13.549 3.982 21.394 6.592 0.503 14.444-0.242 19.512 1.781-4.738-0.609-11.209-1.804-17.32-1.388-1.157 0.079-2.873-0.044-2.789 1.585 7.074 0.556 14.104 1.16 19.912 2.973-5.761-0.94-12.754-2.374-19.912-2.574-2.957 5.835-8.908 8.704-17.123 9.308 0.883 1.921 2.574 2.652 2.987 5.744 0.616 4.617-0.964 11.381 0.595 14.459 0.748 1.475 1.967 1.514 2.789 2.774-2.012 2.382-7-0.267-7.568-2.774-0.973-4.295 1.482-10.954-1.192-13.865 0.188 4.684-1.108 11.264 0.199 15.449 0.515 1.646 2.002 2.281 1.593 3.765-9.352 0.95-5.443-12.104-6.972-19.81-1.411 0.101-0.791 2.113-0.796 2.973-0.04 7.523 1.54 17.844-6.57 16.837-0.237-1.581 1.088-2.119 1.593-3.563 1.479-4.233-0.277-10.541 0.401-15.65-3.095 2.333 0.325 10.48-1.593 14.656-1.105 2.404-4.666 3.451-7.367 2.376 0.352-1.788 2.2-1.5 2.984-3.167 1.096-2.325 0.008-5.674 0.399-9.111-5.729 1.143-10.173-0.166-12.348-3.764-0.973-1.615-1.214-3.521-2.39-4.951-1.17-1.432-3.04-1.625-3.582-3.564 7.095-1.707 7.367 7.303 13.739 7.525 1.954 0.07 2.97-0.564 4.778-0.989 0.506-2.272 1.589-3.966 3.186-5.153-7.93-1.086-14.478-3.556-17.523-9.506-7.208 0.355-13.804 1.317-19.913 2.771 5.545-2.014 12.384-2.736 19.715-2.973-0.432-2.596-4.219-1.882-6.57-1.782-4.369 0.194-9.869 0.737-13.342 1.389 5.034-1.795 12.098-1.571 18.918-1.585-2.086-6.54-1.363-16.929 3.186-20.798-1.289-3.249-0.889-8.563 0.796-11.093 5.079 0.228 8.159 2.443 11.35 4.557 3.957-1.125 8.118-1.685 13.54-1.387 2.28 0.126 4.651 1.151 6.369 0.989 1.685-0.158 3.542-2.049 5.178-2.771 2.131-0.941 3.934-1.3 6.372-1.388" fill="#fbf7e0"/></svg><svg xmlns:xlink="http://www.w3.org/1999/xlink" id="location" style="enable-background:new 0 0 16 16" xml:space="preserve" height="16" viewBox="0 0 16 16" width="16" version="1.1" y="456"><path d="m8 0c-3.313 0-6 2.687-6 6 0 3.854 4.321 8.663 5 9.398 0.281 0.305 0.516 0.602 1 0.602s0.719-0.297 1-0.602c0.679-0.735 5-5.544 5-9.398 0-3.313-2.687-6-6-6zm0 10c-2.209 0-4-1.791-4-4s1.791-4 4-4 4 1.791 4 4-1.791 4-4 4zm0-6c-1.104 0-2 0.896-2 2s0.896 2 2 2 2-0.896 2-2-0.896-2-2-2z" fill="#fbf7e0"/></svg><svg xmlns:xlink="http://www.w3.org/1999/xlink" id="mail" style="enable-background:new 0 0 16 16" xml:space="preserve" height="16" viewBox="0 0 16 16" width="16" version="1.1" y="472"><path d="m8 10c-0.266 0-0.5-0.094-1-0.336l-7-3.664v7c0 0.55 0.45 1 1 1h14c0.55 0 1-0.45 1-1v-7l-7 3.664c-0.5 0.242-0.734 0.336-1 0.336zm7-8h-14c-0.55 0-1 0.45-1 1v0.758l8 4.205 8-4.205v-0.758c0-0.55-0.45-1-1-1z" fill="#fbf7e0"/></svg><svg xmlns:xlink="http://www.w3.org/1999/xlink" id="phone" xml:space="preserve" height="142" viewBox="0 0 141.732 141.732" width="142" version="1.1" enable-background="new 0 0 141.732 141.732" y="488"><g id="phone-Livello_12"><path d="m108.22 118.23h-66.22v-107.34h66.22v107.34zm-38.258 10.89c0-2.951 2.37-5.345 5.294-5.345 2.925 0 5.294 2.394 5.294 5.345 0 2.95-2.369 5.348-5.294 5.348-2.924 0-5.294-2.39-5.294-5.35m42.708 4.86h0.009v-128.67h-0.002c-0.02-2.937-2.4-5.314-5.34-5.314-0.021 0-0.038 0.002-0.057 0.002v-0.002h-64.386c-2.938 0.002-5.319 2.379-5.335 5.314h-0.001v128.66h0.008c-0.002 0.056-0.008 0.111-0.008 0.169 0 2.878 2.419 5.212 5.404 5.212 0.044 0 0.087-0.006 0.131-0.007v0.007h64.316c2.904 0 5.267-2.333 5.267-5.212 0-0.05-0.01-0.11-0.01-0.16" fill="#fbf7e0"/></g></svg><svg xmlns:xlink="http://www.w3.org/1999/xlink" id="skype" xml:space="preserve" height="57" viewBox="0 0 56.693 56.693" width="57" version="1.1" enable-background="new 0 0 56.693 56.693" y="630"><path d="m51.497 34.785c0.354-1.624 0.539-3.303 0.539-5.029 0-12.938-10.488-23.427-23.428-23.427-1.365 0-2.703 0.119-4.008 0.342-2.092-1.32-4.571-2.087-7.227-2.087-7.505 0-13.588 6.084-13.588 13.59 0 2.507 0.683 4.854 1.867 6.871-0.312 1.521-0.474 3.098-0.474 4.711 0 12.941 10.488 23.43 23.429 23.43 1.467 0 2.898-0.135 4.289-0.392 1.914 1.027 4.1 1.611 6.424 1.611 7.504 0 13.586-6.083 13.586-13.587 0.001-2.168-0.507-4.214-1.409-6.033zm-10.873 6.168c-1.082 1.533-2.684 2.749-4.76 3.611-2.055 0.854-4.518 1.288-7.32 1.288-3.365 0-6.188-0.593-8.389-1.761-1.575-0.849-2.872-1.999-3.858-3.424-0.994-1.433-1.498-2.857-1.498-4.232 0-0.857 0.328-1.602 0.976-2.211 0.642-0.604 1.464-0.91 2.446-0.91 0.805 0 1.5 0.24 2.064 0.716 0.539 0.459 1 1.136 1.373 2.009 0.416 0.953 0.867 1.756 1.346 2.385 0.461 0.61 1.121 1.121 1.965 1.521 0.85 0.401 1.996 0.606 3.402 0.606 1.938 0 3.527-0.413 4.721-1.229 1.168-0.796 1.732-1.753 1.732-2.923 0-0.925-0.295-1.65-0.902-2.223-0.641-0.597-1.48-1.058-2.502-1.379-1.064-0.331-2.51-0.691-4.297-1.066-2.434-0.52-4.498-1.138-6.141-1.835-1.682-0.716-3.036-1.708-4.026-2.946-1.005-1.261-1.516-2.837-1.516-4.695 0-1.77 0.535-3.367 1.591-4.741 1.047-1.367 2.578-2.431 4.548-3.157 1.943-0.719 4.256-1.084 6.875-1.084 2.092 0 3.93 0.244 5.467 0.719 1.545 0.48 2.846 1.13 3.869 1.929 1.029 0.806 1.797 1.665 2.279 2.561 0.484 0.902 0.73 1.802 0.73 2.671 0 0.838-0.322 1.599-0.961 2.264-0.643 0.666-1.451 1.004-2.406 1.004-0.867 0-1.547-0.213-2.018-0.627-0.438-0.391-0.893-0.995-1.398-1.864-0.584-1.108-1.291-1.984-2.102-2.601-0.789-0.601-2.105-0.902-3.914-0.902-1.678 0-3.045 0.336-4.059 1.003-0.977 0.639-1.453 1.374-1.453 2.245 0 0.535 0.154 0.979 0.471 1.363 0.332 0.409 0.803 0.763 1.395 1.062 0.615 0.311 1.252 0.556 1.887 0.73 0.65 0.182 1.742 0.449 3.24 0.795 1.896 0.408 3.641 0.863 5.18 1.357 1.562 0.5 2.908 1.113 4.01 1.83 1.121 0.73 2.01 1.667 2.641 2.789 0.633 1.125 0.953 2.513 0.953 4.127 0 1.926-0.553 3.688-1.641 5.225z" fill="#fbf7e0"/></svg><svg xmlns:xlink="http://www.w3.org/1999/xlink" id="xing" xml:space="preserve" height="100" viewBox="0 0 100 100" width="100" version="1.1" enable-background="new 0 0 100 100" y="687"><path d="m60.364 95l-20.128-35.283 31.239-54.717h21.025l-31.238 54.717 20.129 35.283h-21.027zm-33.042-27.213l15.617-25.711-11.712-20.63h-19.823l11.713 20.63-15.617 25.711h19.822z" fill="#fbf7e0"/></svg></svg>
